<?xml version="1.0" encoding="UTF-8" standalone="no"?>
<!-- Created with Fritzing (http://www.fritzing.org/) -->

<svg
   version="1.2"
   x="0in"
   y="0in"
   width="0.3in"
   height="0.33in"
   viewBox="0 0 21.6 23.76"
   id="svg125"
   sodipodi:docname="MPS20N0040D.svg"
   inkscape:version="1.1.1 (3bf5ae0d25, 2021-09-20)"
   xmlns:inkscape="http://www.inkscape.org/namespaces/inkscape"
   xmlns:sodipodi="http://sodipodi.sourceforge.net/DTD/sodipodi-0.dtd"
   xmlns="http://www.w3.org/2000/svg"
   xmlns:svg="http://www.w3.org/2000/svg">
  <defs
     id="defs129" />
  <sodipodi:namedview
     id="namedview127"
     pagecolor="#ffffff"
     bordercolor="#666666"
     borderopacity="1.0"
     inkscape:pageshadow="2"
     inkscape:pageopacity="0.0"
     inkscape:pagecheckerboard="0"
     inkscape:document-units="in"
     showgrid="false"
     inkscape:snap-bbox="true"
     inkscape:bbox-paths="true"
     inkscape:bbox-nodes="true"
     inkscape:snap-bbox-edge-midpoints="true"
     inkscape:snap-bbox-midpoints="true"
     inkscape:zoom="13.162878"
     inkscape:cx="-7.1792809"
     inkscape:cy="22.867339"
     inkscape:window-width="1920"
     inkscape:window-height="1043"
     inkscape:window-x="1920"
     inkscape:window-y="0"
     inkscape:window-maximized="1"
     inkscape:current-layer="icon">
    <inkscape:grid
       type="xygrid"
       id="grid335" />
  </sodipodi:namedview>
  <g
     partID="854395460"
     id="g123">
    <g
       id="icon">
      <rect
         id="middle"
         x="0"
         height="19.44"
         y="2.16"
         fill="#303030"
         width="21.6" />
      <rect
         id="top"
         x="0"
         height="1.7712"
         y="2.16"
         fill="#3D3D3D"
         width="21.6" />
      <rect
         id="bottom"
         x="0"
         height="1.7712"
         y="19.8288"
         fill="#000000"
         width="21.6" />
      <polygon
         id="right"
         points="21.6,2.16,21.06,3.9312,21.06,19.8288,21.6,21.6"
         fill="#141414" />
      <polygon
         id="left"
         points="0,2.16,0.54,3.9312,0.54,19.8288,0,21.6"
         fill="#1F1F1F" />
      <polygon
         id="left-upper-rect"
         points="3.6,8.28,0.54,8.2512,0.4032,9.7776,0.4032,11.88,3.6,11.88"
         fill="#1C1C1C" />
      <polygon
         id="left-lower-rect"
         points="0.54,15.516,3.6,15.516,3.6,11.88,0.4032,11.88,0.4032,13.9824"
         fill="#383838" />
      <path
         id="slot"
         d="M0.4032,9.7776l0,4.1976c1.0584,-0.1224,1.8864,-1.008,1.8864,-2.1024C2.2896,10.7784,1.4688,9.9,0.4032,9.7776z"
         fill="#262626" />
      <path
         id="cover"
         d="M0.54,3.9312L0.54,8.244c1.7136,0.324,3.0168,1.8216,3.0168,3.6288c0,1.8072,-1.296,3.312,-3.0168,3.636L0.54,15.516l3.6,0L4.14,3.9312L0.54,3.9312z"
         fill="#303030" />
      <ellipse
         fill="#212121"
         cy="11.7004"
         cx="18.846712"
         id="circle95"
         rx="1.4825196"
         ry="1.4832" />
      <text
         font-family="OCRA"
         id="label"
         x="4.68"
         font-size="5.76"
         text-anchor="start"
         stroke="none"
         y="11.88"
         fill="#dddddd">MPS</text>
      <rect
         id="connector0pin"
         x="2.52"
         height="3.1248"
         y="20.6352"
         fill="#8C8C8C"
         width="2.16" />
      <rect
         id="connector0terminal"
         x="2.52"
         height="2.16"
         y="21.6"
         fill="#8C8C8C"
         width="2.16" />
      <polygon
         points="2.52,20.6352,2.52,22.0752,4.68,22.0752,6.12,21.4128,6.12,20.6352"
         fill="#8C8C8C"
         id="polygon100" />
      <rect
         id="connector5pin"
         x="2.52"
         height="3.1248"
         fill="#8C8C8C"
         width="2.16" />
      <rect
         id="connector5terminal"
         x="2.52"
         height="2.16"
         fill="#8C8C8C"
         width="2.16" />
      <polygon
         points="6.12,3.1248,6.12,2.3472,4.68,1.6848,2.52,1.6848,2.52,3.1248"
         fill="#8C8C8C"
         id="polygon104" />
      <rect
         id="connector2pin"
         x="16.92"
         height="3.1248"
         y="20.6352"
         fill="#8C8C8C"
         width="2.16" />
      <rect
         id="connector2terminal"
         x="16.92"
         height="2.16"
         y="21.6"
         fill="#8C8C8C"
         width="2.16" />
      <polygon
         points="15.48,20.6352,15.48,21.4128,16.92,22.0752,19.08,22.0752,19.08,20.6352"
         fill="#8C8C8C"
         id="polygon108" />
      <rect
         id="connector3pin"
         x="16.92"
         height="3.1248"
         y="0"
         fill="#8C8C8C"
         width="2.16" />
      <rect
         id="connector3terminal"
         x="16.92"
         height="2.16"
         y="0"
         fill="#8C8C8C"
         width="2.16" />
      <polygon
         points="19.08,3.1248,19.08,1.6848,16.92,1.6848,15.48,2.3472,15.48,3.1248"
         fill="#8C8C8C"
         id="polygon112" />
      <rect
         id="connector1pin"
         x="9.72"
         height="3.1248"
         y="20.6352"
         fill="#8C8C8C"
         width="2.16" />
      <rect
         id="connector1terminal"
         x="9.72"
         height="2.16"
         y="21.6"
         fill="#8C8C8C"
         width="2.16" />
      <polygon
         points="8.28,20.6352,8.28,21.4128,9.72,22.0752,11.88,22.0752,13.32,21.4128,13.32,20.6352"
         fill="#8C8C8C"
         id="polygon116" />
      <rect
         id="connector4pin"
         x="9.72"
         height="3.1248"
         y="0"
         fill="#8C8C8C"
         width="2.16" />
      <rect
         id="connector4terminal"
         x="9.72"
         height="2.16"
         fill="#8C8C8C"
         width="2.16" />
      <polygon
         points="13.32,3.1248,13.32,2.3472,11.88,1.6848,9.72,1.6848,8.28,2.3472,8.28,3.1248"
         fill="#8C8C8C"
         id="polygon120" />
    </g>
  </g>
</svg>
